<?xml version="1.0" standalone="no"?>
<!DOCTYPE svg PUBLIC "-//W3C//DTD SVG 20010904//EN"
 "http://www.w3.org/TR/2001/REC-SVG-20010904/DTD/svg10.dtd">
<svg version="1.0" xmlns="http://www.w3.org/2000/svg"
 width="130.000000pt" height="115.000000pt" viewBox="0 0 130.000000 115.000000"
 preserveAspectRatio="xMidYMid meet">
<metadata>
Created by potrace 1.13, written by Peter Selinger 2001-2015
</metadata>
<g transform="translate(0.000000,115.000000) scale(0.100000,-0.100000)"
fill="#9c9c9c" stroke="black" stroke-width= "10">
<path d="M265 1101 c-3 -5 -59 -247 -126 -537 -95 -418 -118 -529 -107 -535 7
-5 286 -9 621 -9 537 0 607 2 607 15 0 9 -34 163 -74 343 -41 180 -93 410
-116 512 -22 102 -43 193 -46 203 -5 16 -32 17 -379 17 -218 0 -376 -4 -380
-9z"/>
</g>
</svg>
